<svg xmlns="http://www.w3.org/2000/svg" xmlns:xlink="http://www.w3.org/1999/xlink" version="1.1" x="0px" y="0px" viewBox="0 0 100 125" style="enable-background:new 0 0 100 100;" xml:space="preserve">
<g><path d="M89.5,46.2l-5.3-7.1v-3.6c0-3.3-2.7-6-6-6H49.2c-2.1,0-3.9,1.1-5,2.7V7c0-1.1-0.9-2-2-2s-2,0.9-2,2v30.1h-1.4V7   c0-1.1-0.9-2-2-2s-2,0.9-2,2v30.1h-1.4V7c0-1.1-0.9-2-2-2s-2,0.9-2,2v30.1h-1.4V7c0-1.1-0.9-2-2-2s-2,0.9-2,2v30.1h-1.4V7   c0-1.1-0.9-2-2-2s-2,0.9-2,2v30.1h-1.4V7c0-1.1-0.9-2-2-2s-2,0.9-2,2V75C9.8,77.5,7.5,80.5,9,85.1c0.7,2.3,2.2,4.2,4.4,5.7   c0.3,0.8,1,1.4,1.9,1.4c0.1,0,0.2,0,0.3,0c1.9,1,4.1,1.7,6.7,2.2c2.2,0.4,4.6,0.6,7,0.6c4.4,0,8.9-0.7,13.2-2h0.7   c3.2,1.5,8.2,1.6,14.7,1.6c1.3,0,2.6,0,3.8,0c1.2,0,2.3,0,3.4,0c5.9,0,10.8-0.2,14.2-1.7h6.1c3.3,0,6-2.7,6-6V52.2   C91.5,50.1,90.7,47.9,89.5,46.2z M23,90.4c-5.4-1-9.1-3.4-10.1-6.5c-1.1-3.4,1.1-5,7.7-8.7c3.6-2,7.7-4.4,11.6-7.8   c4.4-3.9,9.7-6.2,14.2-6.2c1.1,0,2.1,0.1,3.1,0.4c1.8,0.5,4.2,1.7,5.2,4.7c0.2,0.5,0.3,1,0.4,1.6C44.8,69.8,38.5,75.7,38.5,84   c0,2.3,0.4,4.2,1.1,5.6C34,91.1,28.1,91.4,23,90.4z M78.1,33.5c1.1,0,2,0.9,2,2v3.3H47.2v-3.3c0-1.1,0.9-2,2-2H78.1z M73.8,70.3   c-3.8-2.2-8.3-3.3-13-3.1c-0.6,0-1.3,0.1-1.9,0.1c-0.1-0.8-0.3-1.6-0.5-2.3c-1.2-3.6-4-6.2-7.9-7.3c-3.2-0.9-6.9-0.7-10.5,0.5v-6   c0-1.3,0.4-2.6,1.2-3.6l5.7-7.7c0-0.1,0.1-0.1,0.1-0.2h33.2l-4.5,6.1c-1.2,1.5-1.8,3.5-1.8,5.4V70.3z M34.9,60.5   c-0.5,0.3-0.9,0.5-1.4,0.8v-5.9h1.4V60.5z M29.5,55.5v8.9c0,0,0,0,0,0c-0.4,0.4-0.9,0.8-1.4,1.2V55.5H29.5z M61.7,90.6   c-1.3,0-2.5,0-3.9,0c-14.7,0-15.4-1.4-15.4-6.6c0-7.5,7.1-12.4,18.4-12.8c0.3,0,0.5,0,0.8,0c7.2,0,11.8,3.4,14,5.5   c2.8,2.7,4.5,6.1,4.5,9.1c0,1.5-0.5,2.2-0.9,2.5C76.9,90.7,69.8,90.6,61.7,90.6z M41.3,41.8l-3.3,4.5c-1.3,1.7-2,3.8-2,6v1.3H16.3   V39.1h25V41.8z M24.1,55.5v13c-0.5,0.3-0.9,0.6-1.4,0.9V55.5H24.1z M83.5,88.9c0.4-0.9,0.6-2,0.6-3.2c0-4.1-2.1-8.5-5.7-12   c-0.8-0.8-1.7-1.5-2.6-2.2V52.2c0-1.5,0.5-3,1.4-4.2l4.3-5.7l4.7,6.3c0.8,1,1.2,2.3,1.2,3.6v34.7c0,1.1-0.9,2-2,2H83.5z M17.3,55.5   h1.4v16.2c0,0-0.1,0-0.1,0.1c-0.4,0.2-0.9,0.5-1.3,0.7V55.5z"/></g>
</svg>